<svg width="232" height="36" viewBox="0 0 232 36" fill="none" xmlns="http://www.w3.org/2000/svg">
<path d="M16.4943 0.0315094C8.31076 0.801727 1.58513 6.93594 0.195992 14.8994C-0.0653307 16.4261 -0.0653307 19.3832 0.195992 20.9373C0.842422 24.6234 2.58916 27.9105 5.33993 30.62C8.07694 33.3295 11.0478 34.8975 14.9126 35.6539C16.6043 35.9978 20.084 35.9978 21.7483 35.6677C27.0572 34.6087 31.6785 31.3077 34.3055 26.7002C38.2941 19.6857 37.1113 11.0621 31.3484 5.31298C28.7627 2.72726 25.2967 0.911755 21.7483 0.292835C20.5379 0.072773 17.5671 -0.0647659 16.4943 0.0315094ZM20.3454 1.80576C24.4027 2.34216 27.7174 3.99261 30.4269 6.81215C34.5668 11.1309 36.0247 17.2376 34.2092 22.7804C33.0814 26.2188 30.6882 29.3409 27.6349 31.3903C21.2944 35.5989 13.2621 35.1313 7.36174 30.1937C4.5147 27.8005 2.56165 24.4446 1.84645 20.7035C1.57138 19.2594 1.58513 16.5361 1.86021 15.0782C2.78171 10.1543 6.04137 5.82187 10.5251 3.52499C11.873 2.83729 14.1561 2.09459 15.5315 1.88828C16.0954 1.80576 16.7143 1.70948 16.9069 1.68197C17.6771 1.57194 18.9837 1.6132 20.3454 1.80576Z" fill="white"/>
<path d="M15.2291 4.28129C14.734 4.46009 13.9363 4.76268 13.4824 4.96899L12.6434 5.35409V10.4843V15.6282H9.96142H7.27942V12.3823C7.27942 9.8516 7.23816 9.15015 7.11437 9.19141C6.82554 9.28769 5.9453 10.5255 5.35388 11.6534C3.23579 15.7107 3.22204 19.9882 5.29887 24.018C5.93154 25.2421 6.81179 26.5075 7.11437 26.6038C7.23816 26.645 7.27942 25.9436 7.27942 23.4129V20.167H9.96142H12.6434V25.3934V30.6199L13.4411 31.0188C14.2251 31.4039 16.1231 32.1328 16.3707 32.1328C16.4395 32.1328 16.4945 26.7413 16.4945 18.0351C16.4945 6.83951 16.4532 3.93745 16.3294 3.9512C16.2332 3.9512 15.738 4.1025 15.2291 4.28129ZM15.0778 30.166C15.0503 30.1935 14.8028 30.111 14.5277 30.001L14.0188 29.7947L13.9913 24.2519L13.95 18.7228L9.93391 18.6816L5.90404 18.6541V20.3733C5.90404 21.3223 5.84902 22.0925 5.78025 22.0925C5.62896 22.0925 5.13382 20.8959 4.8725 19.8781C4.62493 18.9841 4.61118 17.1549 4.81748 16.1509C5.01004 15.2431 5.61521 13.7027 5.78025 13.7027C5.84902 13.7027 5.90404 14.4591 5.90404 15.3944V17.0999L9.93391 17.0861L13.95 17.0724L13.9913 11.6946L14.0188 6.30311L14.5414 6.0968L15.0503 5.89049L15.0916 18.0076C15.1054 24.6645 15.1054 30.1385 15.0778 30.166Z" fill="white"/>
<path d="M19.9329 18.0351C19.9329 30.221 19.9604 32.1328 20.1254 32.1328C20.4418 32.1328 22.2435 31.4589 23.1375 31.0188L23.9215 30.6199V25.3934V20.167L26.6447 20.1945L29.3542 20.2357L29.423 23.4404L29.4918 26.6588L29.7806 26.3287C31.1973 24.747 32.4489 21.7624 32.7514 19.2042C33.109 16.1233 32.0637 12.4923 30.0694 9.8516L29.4918 9.09513L29.423 12.3273L29.3542 15.5594L26.6447 15.6007L23.9215 15.6282V10.498V5.35409L23.0962 4.98274C22.1472 4.55637 20.3867 3.93745 20.1117 3.93745C19.9604 3.93745 19.9329 6.42689 19.9329 18.0351ZM22.4911 6.2756C22.5186 6.2756 22.5598 8.71003 22.5736 11.6671L22.6149 17.0724H26.6035H30.5921L30.6333 15.3806C30.6471 14.4591 30.7296 13.7027 30.7984 13.7027C30.8672 13.7027 31.1147 14.2116 31.3623 14.8305C32.16 16.8936 32.0637 19.6443 31.1147 21.4461L30.7296 22.1613L30.6884 20.4008L30.6471 18.6541L26.631 18.6816L22.6149 18.7228L22.5736 24.2519L22.5461 29.7947L22.051 30.001C21.7759 30.111 21.5283 30.2073 21.5008 30.2073C21.4733 30.2073 21.4458 24.7332 21.4458 18.0351V5.86298L21.9409 6.06929C22.216 6.17932 22.4636 6.2756 22.4911 6.2756Z" fill="white"/>
<path d="M44.6897 4.61161C44.6897 4.66663 44.9098 5.01048 45.1711 5.35432L45.6525 5.987V17.6227V29.2722L45.1711 29.8499C44.9098 30.18 44.6897 30.4826 44.6897 30.5376C44.6897 30.5789 45.9 30.6201 47.3717 30.6201C49.201 30.6201 50.0537 30.5789 50.0537 30.4688C50.0537 30.3863 49.8336 30.0562 49.5723 29.7399L49.0909 29.1485V23.138V17.1414H50.5351H51.9792V23.138V29.1347L51.4978 29.7124C51.2365 30.0425 51.0165 30.3725 51.0165 30.4688C51.0165 30.5789 51.7729 30.6201 53.6985 30.6201C55.1701 30.6201 56.3805 30.5789 56.3805 30.5376C56.3805 30.4826 56.1604 30.18 55.8991 29.8499L55.4177 29.2722V17.5952V5.93198L55.8991 5.32681C56.1604 4.99672 56.3805 4.66663 56.3805 4.61161C56.3805 4.54284 55.1701 4.48783 53.6985 4.48783C51.5529 4.48783 51.0165 4.52909 51.0165 4.66663C51.0165 4.77666 51.2365 5.13426 51.4978 5.47811L51.9792 6.09703L51.9517 10.2094L51.9105 14.3218H50.5351H49.1597L49.1184 10.2232L49.0909 6.11078L49.5723 5.4506C49.8336 5.093 50.0537 4.72164 50.0537 4.63912C50.0537 4.52909 49.256 4.48783 47.3717 4.48783C45.9 4.48783 44.6897 4.54284 44.6897 4.61161Z" fill="white"/>
<path d="M144.9 4.59786C144.859 4.66663 145.079 5.03798 145.368 5.43684L145.918 6.1658V17.6227V29.0797L145.354 29.7949C145.051 30.18 144.817 30.5376 144.859 30.5651C144.886 30.5926 146.138 30.6064 147.623 30.5926L150.333 30.5513L149.769 29.8086L149.219 29.0522L149.246 23.138L149.287 17.2101L150.704 17.1689L152.107 17.1276V23.138V29.1485L151.626 29.7399C151.364 30.0562 151.144 30.3863 151.144 30.4688C151.144 30.5789 151.997 30.6201 153.826 30.6201C155.298 30.6201 156.508 30.5789 156.508 30.5101C156.508 30.4551 156.288 30.1387 156.027 29.8086L155.545 29.2035V17.5815V5.95949L156.027 5.36807C156.288 5.05174 156.508 4.72164 156.508 4.63912C156.508 4.52909 155.655 4.48783 153.826 4.48783C151.777 4.48783 151.144 4.52909 151.144 4.65287C151.144 4.74915 151.364 5.10675 151.626 5.43684L152.107 6.04201L152.08 10.1819L152.038 14.3218H150.663H149.287L149.246 10.2644L149.219 6.20706L149.755 5.43684C150.058 5.01048 150.264 4.62537 150.223 4.57035C150.085 4.44657 144.983 4.47408 144.9 4.59786Z" fill="white"/>
<path d="M107.325 6.70219C105.949 7.03229 104.629 8.21512 104.038 9.67302C103.776 10.3057 103.762 10.7458 103.721 19.7546L103.68 29.1622L103.212 29.7811C102.951 30.1112 102.731 30.4413 102.731 30.5101C102.731 30.5651 103.941 30.6201 105.413 30.6201C106.885 30.6201 108.095 30.5789 108.095 30.5376C108.095 30.4826 107.875 30.1525 107.614 29.7949L107.132 29.1347V23.138V17.1414H108.37H109.608V23.138V29.1347L109.126 29.7949C108.865 30.1525 108.645 30.4826 108.645 30.5376C108.645 30.5789 109.855 30.6201 111.327 30.6201C112.799 30.6201 114.009 30.5651 114.009 30.5101C114.009 30.4413 113.789 30.1112 113.528 29.7811L113.06 29.1622L113.019 19.7546L112.978 10.3332L112.661 9.54924C112.221 8.46269 111.327 7.49992 110.323 7.0598C109.402 6.64718 108.177 6.49589 107.325 6.70219ZM109.126 9.63176C109.553 10.0581 109.635 10.5395 109.58 12.6026L109.539 14.3218H108.37H107.201L107.16 12.7401C107.132 11.8736 107.16 10.8971 107.201 10.5808C107.366 9.43921 108.411 8.91656 109.126 9.63176Z" fill="white"/>
<path d="M119.153 6.79814C117.778 7.29327 116.732 8.4486 116.278 10.0028C116.086 10.6905 116.072 11.7633 116.1 19.0803L116.141 27.3876L116.512 28.1716C117.337 29.9321 118.837 30.9224 120.666 30.9224C123.142 30.9224 124.916 29.2994 125.287 26.6999C125.356 26.1635 125.425 23.6191 125.425 21.0196V16.3158H123.224C121.739 16.3158 121.024 16.3708 121.024 16.4671C121.024 16.5496 121.244 16.8797 121.519 17.2098L122 17.815L121.959 22.5325C121.918 26.81 121.89 27.3051 121.67 27.6352C121.134 28.4604 120.212 28.4329 119.717 27.5802C119.456 27.1263 119.442 26.8787 119.442 18.7915C119.442 11.2819 119.469 10.4154 119.676 9.96152C120.061 9.10878 121.161 9.04001 121.629 9.83773C122.014 10.5117 122.124 12.8223 121.78 13.5513C121.326 14.5691 121.464 14.5828 123.499 13.7301L125.356 12.9461L125.397 12.4097C125.466 11.5432 125.177 9.63143 124.861 8.88872C124.517 8.091 123.733 7.32078 122.825 6.92192C121.931 6.52306 120.102 6.45429 119.153 6.79814Z" fill="white"/>
<path d="M226.034 6.7432C224.631 7.18333 223.448 8.18736 222.939 9.34268C222.238 10.9381 222.21 13.9365 222.871 15.2981C223.311 16.2058 223.833 16.6185 225.786 17.6087C227.616 18.544 228.372 19.2592 228.51 20.1807C228.551 20.5108 228.579 22.2988 228.551 24.1281L228.51 27.484L228.056 27.8829C227.533 28.3505 227.162 28.378 226.557 28.0066C225.91 27.6215 225.828 27.1126 225.828 23.4266C225.828 20.387 225.855 20.0982 226.117 19.4655C226.282 19.0941 226.378 18.7503 226.337 18.709C226.309 18.6678 225.429 18.9979 224.397 19.4242L222.527 20.2082V23.8805C222.527 28.1029 222.596 28.5018 223.558 29.4508C223.875 29.7671 224.494 30.2072 224.947 30.4273C225.69 30.7987 225.883 30.8262 227.272 30.8262C228.661 30.8262 228.854 30.7987 229.541 30.4411C230.504 29.9459 231.123 29.3545 231.577 28.488L231.948 27.8003V23.3991C231.948 19.1354 231.934 18.9704 231.632 18.2139C231.192 17.1274 230.243 16.3021 228.221 15.2568C227.327 14.7892 226.405 14.2253 226.185 13.9915C225.828 13.6201 225.773 13.4551 225.718 12.451C225.635 11.0206 225.869 9.94785 226.337 9.5765C226.832 9.19139 227.629 9.20514 228.125 9.63151C228.482 9.94785 228.51 10.0441 228.551 11.1994C228.592 12.121 228.551 12.5336 228.386 12.8499C228.152 13.29 228.097 13.8539 228.276 13.8264C228.331 13.8264 229.184 13.4688 230.16 13.0425L231.948 12.2585L231.989 11.502C232.058 10.4292 231.783 9.09511 231.384 8.46243C230.463 7.00453 227.863 6.16554 226.034 6.7432Z" fill="white"/>
<path d="M58.3059 6.92226C58.3059 6.99103 58.5535 7.33487 58.8561 7.71998L59.4062 8.40767V18.7368V29.0659L58.8561 29.7674C58.5535 30.1387 58.3059 30.4963 58.3059 30.5376C58.3059 30.5789 60.2865 30.6201 62.7071 30.6201H67.1084V28.502C67.1084 27.333 67.0533 26.3427 66.9983 26.3014C66.9296 26.2602 66.5169 26.604 66.0768 27.0441L65.2653 27.8693H63.9862H62.7071V22.5054V17.1414H63.1748C63.6286 17.1414 63.6837 17.1964 64.2476 18.2417C64.5777 18.8468 64.8802 19.342 64.949 19.342C65.004 19.342 65.0453 17.8566 65.0453 16.0273C65.0453 14.1568 64.9903 12.7401 64.9215 12.7676C64.8527 12.7814 64.5089 13.1665 64.1513 13.6066C63.6149 14.2668 63.4361 14.4043 63.1335 14.3631L62.7759 14.3218V11.9837V9.64552L63.9862 9.60426C65.1828 9.56299 65.2103 9.57675 65.8568 10.0581C66.2281 10.3195 66.5582 10.5395 66.6132 10.5395C66.6545 10.5395 66.6957 9.70053 66.6957 8.68275V6.82598H62.5008C60.1902 6.82598 58.3059 6.86724 58.3059 6.92226Z" fill="white"/>
<path d="M69.0337 6.93593C69.0337 7.0047 69.2538 7.33479 69.5151 7.66489L69.9965 8.27005V18.7367V29.2034L69.5151 29.8361C69.2538 30.1799 69.0337 30.4963 69.0337 30.5375C69.0337 30.5788 70.244 30.62 71.7157 30.62C73.5174 30.62 74.3977 30.5788 74.3977 30.4687C74.3977 30.4 74.1776 30.0424 73.9163 29.6985L73.4349 29.0659V24.5959C73.4349 21.9001 73.4899 20.1671 73.5587 20.2359C73.6275 20.3184 74.3014 22.354 75.0579 24.7747L76.4333 29.1759L76.1719 29.6848C75.6768 30.6475 75.608 30.62 78.5238 30.62C79.968 30.62 81.1371 30.5925 81.1371 30.5513C81.1371 30.51 80.862 30.1799 80.5181 29.8086C79.913 29.1621 79.8855 29.0659 78.3863 24.2658C77.5611 21.5838 76.8734 19.3006 76.8871 19.1906C76.8871 19.0806 77.1485 18.8055 77.4648 18.5854C77.8774 18.2966 78.18 17.884 78.5238 17.21L79.0052 16.2473V13.0151C79.0052 9.31535 78.8952 8.75144 78.0012 7.88495C77.0384 6.94969 76.8184 6.90842 72.7197 6.85341C70.4916 6.8259 69.0337 6.85341 69.0337 6.93593ZM74.9203 9.72796C75.5805 9.96178 75.663 10.3469 75.608 13.1114C75.5805 15.147 75.5255 15.6421 75.3192 16.0685C75.0441 16.6049 74.3977 17.0037 73.7925 17.0037H73.4349V13.2902V9.57667H73.9713C74.2601 9.57667 74.6865 9.64544 74.9203 9.72796Z" fill="white"/>
<path d="M83.2004 6.97727C83.2004 7.07355 83.4205 7.40364 83.6818 7.73373L84.1632 8.3114V18.723V29.1209L83.6818 29.7536C83.4205 30.0975 83.2004 30.4413 83.2004 30.4963C83.2004 30.5651 84.4108 30.6201 85.8824 30.6201C87.3541 30.6201 88.5644 30.5789 88.5644 30.5376C88.5644 30.4826 88.3444 30.1525 88.0831 29.7949L87.6017 29.1347V18.7368V8.32515L88.0831 7.69247C88.3444 7.34863 88.5644 7.00478 88.5644 6.94977C88.5644 6.881 87.3541 6.82598 85.8824 6.82598C83.9569 6.82598 83.2004 6.86724 83.2004 6.97727Z" fill="white"/>
<path d="M90.6274 8.68275C90.6274 9.70053 90.6687 10.5395 90.71 10.5395C90.7512 10.5395 91.0676 10.3195 91.4114 10.0581C91.9891 9.61801 92.1129 9.57675 92.9793 9.57675H93.9284V19.3557V29.1209L93.447 29.7536C93.1857 30.0975 92.9656 30.4413 92.9656 30.4963C92.9656 30.5651 94.1759 30.6201 95.6476 30.6201C97.1193 30.6201 98.3296 30.5789 98.3296 30.5101C98.3296 30.4551 98.1095 30.1387 97.8482 29.8086L97.3668 29.2035V19.397V9.57675H98.2746C99.0998 9.57675 99.2511 9.61801 99.8425 10.0581C100.2 10.3195 100.53 10.5395 100.585 10.5395C100.626 10.5395 100.668 9.70053 100.668 8.68275V6.82598H95.6476H90.6274V8.68275Z" fill="white"/>
<path d="M127.35 6.94977C127.35 7.00478 127.57 7.33487 127.832 7.66496L128.313 8.27013V18.7368V29.2035L127.832 29.8361C127.57 30.18 127.35 30.4963 127.35 30.5376C127.35 30.5789 129.303 30.6201 131.683 30.6201H136.015V28.392V26.1639L135.149 27.0166L134.282 27.8693H133.017H131.752V22.5054V17.1414H132.205C132.646 17.1414 132.701 17.2101 133.278 18.2417C133.608 18.8468 133.925 19.342 133.98 19.342C134.048 19.342 134.09 17.8566 134.09 16.0411C134.09 14.2255 134.035 12.7401 133.98 12.7401C133.911 12.7401 133.567 13.1115 133.209 13.5791C132.673 14.2806 132.508 14.4043 132.192 14.3631L131.82 14.3218L131.779 11.9424L131.752 9.57675H133.017C134.269 9.57675 134.31 9.5905 134.901 10.0581C135.231 10.3195 135.561 10.5395 135.616 10.5395C135.685 10.5395 135.74 9.70053 135.74 8.68275V6.82598H131.545C129.235 6.82598 127.35 6.881 127.35 6.94977Z" fill="white"/>
<path d="M158.53 6.90824C158.489 6.96326 158.695 7.32086 158.984 7.70597L159.52 8.42116L159.562 17.8976L159.603 27.3877L159.974 28.1717C160.786 29.9047 162.285 30.9224 164.059 30.9224C165.366 30.9362 166.26 30.6061 167.168 29.7809C168.075 28.9419 168.57 27.9516 168.749 26.6037C168.818 26.0536 168.887 21.6936 168.887 16.9348V8.26987L169.368 7.6647C169.63 7.33461 169.85 7.00452 169.85 6.9495C169.85 6.88074 168.639 6.82572 167.168 6.82572C165.118 6.82572 164.486 6.86698 164.486 6.99076C164.486 7.08704 164.706 7.44464 164.967 7.77473L165.462 8.39366L165.421 17.8288C165.38 26.5487 165.366 27.2914 165.146 27.6353C164.609 28.433 163.702 28.4467 163.234 27.6903C162.986 27.2639 162.973 26.8788 162.973 17.7463V8.24236L163.454 7.6372C163.715 7.3071 163.935 6.99076 163.935 6.922C163.935 6.81197 158.654 6.78446 158.53 6.90824Z" fill="white"/>
<path d="M171.775 6.92226C171.775 6.99103 172.023 7.33487 172.325 7.71998L172.875 8.40767V18.7368V29.0659L172.312 29.7811C171.995 30.18 171.775 30.5238 171.803 30.5651C171.844 30.5926 173.096 30.6064 174.581 30.5926L177.29 30.5513L176.74 29.8086L176.176 29.0522V22.6979C176.176 19.1907 176.231 16.3024 176.286 16.2611C176.355 16.2199 176.603 16.825 176.85 17.5952C177.098 18.3654 178.129 21.6114 179.161 24.8022L181.031 30.6201H181.774H182.503V19.4382V8.27013L182.985 7.66496C183.246 7.33487 183.466 7.00478 183.466 6.94977C183.466 6.881 182.256 6.82598 180.784 6.82598C178.982 6.82598 178.102 6.86724 178.102 6.97727C178.102 7.04604 178.322 7.40364 178.583 7.74749L179.065 8.38017V12.8502C179.065 15.3121 179.037 17.2927 178.996 17.2651C178.968 17.2239 178.281 14.9683 177.483 12.2587C176.685 9.53549 175.998 7.19733 175.956 7.0598C175.888 6.85349 175.667 6.82598 173.824 6.82598C172.697 6.82598 171.775 6.86724 171.775 6.92226Z" fill="white"/>
<path d="M185.392 8.60023C185.392 9.64552 185.447 10.4157 185.529 10.4707C185.612 10.512 185.942 10.3332 186.272 10.0581C186.85 9.57675 186.918 9.56299 187.826 9.60426L188.761 9.64552L188.803 19.3557L188.83 29.0659L188.349 29.6986C188.087 30.0425 187.867 30.4001 187.867 30.4688C187.867 30.5789 188.748 30.6201 190.549 30.6201C192.021 30.6201 193.231 30.5789 193.231 30.5376C193.231 30.4826 193.011 30.18 192.75 29.8499L192.269 29.2722V19.4245V9.57675H193.176C193.988 9.57675 194.125 9.61801 194.703 10.0581C195.047 10.3195 195.391 10.5395 195.446 10.5395C195.514 10.5395 195.569 9.70053 195.569 8.68275V6.82598H190.481H185.392V8.60023Z" fill="white"/>
<path d="M197.632 6.99103C197.632 7.0873 197.852 7.4449 198.114 7.775L198.595 8.38017V18.7643V29.1485L198.114 29.7399C197.852 30.0562 197.632 30.3863 197.632 30.4688C197.632 30.5789 198.953 30.6201 201.965 30.6201H206.297V28.4195C206.297 27.1404 206.242 26.2189 206.173 26.2189C206.091 26.2189 205.706 26.5902 205.307 27.0441L204.592 27.8693H203.313H202.034V22.5054V17.1414H202.446C202.804 17.1414 202.914 17.2514 203.491 18.2417C203.835 18.8468 204.179 19.342 204.248 19.342C204.399 19.342 204.413 12.7814 204.262 12.6851C204.193 12.6439 203.849 13.0152 203.491 13.4966C202.941 14.2393 202.776 14.3906 202.432 14.3906H202.034V11.9837V9.57675H203.258C204.427 9.57675 204.495 9.5905 205.101 10.0581C205.445 10.3195 205.761 10.5395 205.802 10.5395C205.843 10.5395 205.885 9.70053 205.885 8.68275V6.82598H201.758C198.554 6.82598 197.632 6.86724 197.632 6.99103Z" fill="white"/>
<path d="M208.36 6.99103C208.36 7.0873 208.58 7.4449 208.842 7.775L209.323 8.38017V18.7506V29.1347L208.842 29.7124C208.58 30.0425 208.36 30.3725 208.36 30.4688C208.36 30.5789 209.117 30.6201 211.042 30.6201C212.514 30.6201 213.724 30.5789 213.724 30.5376C213.724 30.4963 213.504 30.18 213.243 29.8361L212.762 29.2035V24.6647C212.762 22.1615 212.789 20.1534 212.817 20.181C212.844 20.2085 213.504 22.244 214.275 24.706L215.677 29.176L215.389 29.7674C215.224 30.0837 215.1 30.4138 215.1 30.4826C215.1 30.5651 216.104 30.6201 217.713 30.6201C219.157 30.6201 220.326 30.5651 220.326 30.5101C220.326 30.4551 220.106 30.1937 219.845 29.9324C219.583 29.6849 219.281 29.286 219.171 29.0522C219.061 28.8184 218.304 26.4665 217.493 23.8257C216.324 20.0709 216.049 18.9981 216.186 18.9569C216.626 18.8056 217.562 17.774 217.864 17.1001C218.181 16.4124 218.194 16.2611 218.194 12.9464V9.50798L217.823 8.72401C217.397 7.8025 216.599 7.21109 215.499 6.97727C214.481 6.75721 208.36 6.77097 208.36 6.99103ZM214.261 9.78306C214.481 9.89309 214.687 10.0856 214.742 10.1957C214.907 10.622 214.811 15.3946 214.632 15.8898C214.426 16.4812 213.944 16.8525 213.27 16.9626L212.762 17.0451V13.304V9.57675H213.312C213.628 9.57675 214.054 9.67303 214.261 9.78306Z" fill="white"/>
</svg>
