<svg class="img-fluid" id="outputsvg" xmlns="http://www.w3.org/2000/svg" style="transform: matrix(1, 0, 0, 1, 0, 0); transform-origin: 50% 50%; cursor: move; transition: transform 200ms ease-in-out;" width="512" height="512" viewBox="0 0 5120 5120"><g id="l7Hnd7mZusyHBu85leI7XsA" fill="#fff" style="transform: none;"><g style="transform: none;"><path id="pAOu2d6Xm" d="M2114 4800 c-78 -14 -173 -52 -235 -93 -74 -49 -1727 -1732 -1780 -1812 -85 -128 -116 -327 -75 -470 39 -132 78 -187 276 -390 651 -666 1444 -1472 1511 -1536 132 -127 261 -182 429 -183 434 -1 719 451 530 842 -45 93 -71 123 -425 482 -143 146 -274 280 -290 299 l-30 34 1275 -6 c1091 -5 1285 -4 1345 8 219 46 405 228 455 445 18 75 15 217 -5 287 -47 162 -160 299 -305 370 -47 23 -110 46 -140 51 -80 15 -588 22 -1645 23 -511 0 -947 3 -969 6 l-38 5 204 207 c442 446 491 500 531 582 138 282 41 613 -228 774 -111 66 -270 97 -391 75z"></path></g></g></svg>