<svg width="42" height="39" viewBox="0 0 42 39" fill="none" xmlns="http://www.w3.org/2000/svg">
<path d="M20.9742 4.86011L20.9742 4.36011H20.9742V4.86011ZM38.4517 17.8201H38.9517V17.82L38.4517 17.8201ZM20.9742 30.781V31.281H20.9742L20.9742 30.781ZM15.4224 30.113L15.5429 29.6278C15.4322 29.6003 15.3156 29.6115 15.2121 29.6594L15.4224 30.113ZM6.99176 34.0212L6.49758 33.9452C6.46954 34.1273 6.54397 34.3101 6.69127 34.4209C6.83857 34.5316 7.03485 34.5524 7.20205 34.4749L6.99176 34.0212ZM8.13239 26.6111L8.62656 26.6872C8.65374 26.5106 8.58468 26.333 8.4454 26.2212L8.13239 26.6111ZM3.49567 17.8201L2.99567 17.82V17.8201H3.49567ZM20.9742 4.86011L20.9742 5.36011C25.7041 5.36016 29.9665 6.78244 33.0348 9.05767C36.1031 11.3329 37.9516 14.4364 37.9517 17.8201L38.4517 17.8201L38.9517 17.82C38.9516 14.0462 36.8876 10.6697 33.6304 8.25441C30.3732 5.83907 25.8969 4.36016 20.9742 4.36011L20.9742 4.86011ZM38.4517 17.8201H37.9517C37.9517 21.2038 36.1033 24.3076 33.0349 26.583C29.9666 28.8585 25.7042 30.281 20.9742 30.281L20.9742 30.781L20.9742 31.281C25.897 31.281 30.3734 29.8018 33.6306 27.3863C36.8878 24.9708 38.9517 21.5941 38.9517 17.8201H38.4517ZM20.9742 30.781V30.281C19.0738 30.281 17.2473 30.0508 15.5429 29.6278L15.4224 30.113L15.302 30.5983C17.0859 31.0411 18.9933 31.281 20.9742 31.281V30.781ZM15.4224 30.113L15.2121 29.6594L6.78147 33.5676L6.99176 34.0212L7.20205 34.4749L15.6327 30.5667L15.4224 30.113ZM6.99176 34.0212L7.48594 34.0973L8.62656 26.6872L8.13239 26.6111L7.63821 26.535L6.49758 33.9452L6.99176 34.0212ZM8.13239 26.6111L8.4454 26.2212C5.65764 23.9832 3.99567 21.0285 3.99567 17.8201H3.49567H2.99567C2.99567 21.3974 4.85167 24.6185 7.81937 27.001L8.13239 26.6111ZM3.49567 17.8201L3.99567 17.8201C3.99581 14.4364 5.84447 11.3329 8.91305 9.05761C11.9816 6.78238 16.2442 5.36011 20.9742 5.36011V4.86011V4.36011C16.0514 4.36011 11.5749 5.839 8.31744 8.25434C5.06004 10.6696 2.99583 14.0461 2.99567 17.82L3.49567 17.8201Z" fill="black"/>
</svg>
