<svg width="22" height="17" viewBox="0 0 22 17" fill="none" xmlns="http://www.w3.org/2000/svg">
<path d="M13.5714 1H14.0714C14.0714 0.723858 13.8476 0.5 13.5714 0.5V1ZM13.5714 15.7641V16.2641C13.8476 16.2641 14.0714 16.0403 14.0714 15.7641H13.5714ZM1 15.7641H0.5C0.5 16.0403 0.723858 16.2641 1 16.2641V15.7641ZM1 1V0.5C0.723858 0.5 0.5 0.723858 0.5 1H1ZM10.7143 7.88214C10.4381 7.88214 10.2143 8.106 10.2143 8.38214C10.2143 8.65828 10.4381 8.88214 10.7143 8.88214V8.38214V7.88214ZM21 8.38214L21.3141 8.77117L21.7959 8.38215L21.3141 7.99312L21 8.38214ZM17.2573 10.7613C17.0425 10.9348 17.0089 11.2496 17.1824 11.4644C17.3559 11.6793 17.6707 11.7128 17.8855 11.5394L17.5714 11.1503L17.2573 10.7613ZM17.8855 5.22478C17.6707 5.0513 17.3559 5.08484 17.1824 5.29969C17.0089 5.51454 17.0425 5.82934 17.2573 6.00282L17.5714 5.6138L17.8855 5.22478ZM13.5714 1H13.0714V15.7641H13.5714H14.0714V1H13.5714ZM13.5714 15.7641V15.2641H1V15.7641V16.2641H13.5714V15.7641ZM1 15.7641H1.5V1H1H0.5V15.7641H1ZM1 1V1.5H13.5714V1V0.5H1V1ZM10.7143 8.38214V8.88214H21V8.38214V7.88214H10.7143V8.38214ZM17.5714 11.1503L17.8855 11.5394L21.3141 8.77117L21 8.38214L20.6859 7.99311L17.2573 10.7613L17.5714 11.1503ZM21 8.38214L21.3141 7.99312L17.8855 5.22478L17.5714 5.6138L17.2573 6.00282L20.6859 8.77116L21 8.38214Z" fill="white"/>
</svg>
