<svg width="43" height="40" viewBox="0 0 43 40" fill="none" xmlns="http://www.w3.org/2000/svg">
<path d="M14.3391 29.9465V10.5059L35.313 5.64578V26.7064" stroke="white" stroke-linejoin="round"/>
<path fill-rule="evenodd" clip-rule="evenodd" d="M10.7509 34.0136C8.1857 34.879 5.60159 34.2956 4.97915 32.7104C4.3567 31.1253 5.93164 29.1388 8.49686 28.2734C11.0621 27.408 13.6462 27.9914 14.2686 29.5765C14.8911 31.1617 13.3162 33.1482 10.7509 34.0136Z" stroke="white"/>
<path fill-rule="evenodd" clip-rule="evenodd" d="M31.7248 30.7735C29.1596 31.6389 26.5755 31.0555 25.953 29.4704C25.3306 27.8852 26.9055 25.8987 29.4707 25.0333C32.036 24.1679 34.6201 24.7513 35.2425 26.3364C35.865 27.9216 34.29 29.9081 31.7248 30.7735Z" stroke="white"/>
</svg>
