<svg width="42" height="39" viewBox="0 0 42 39" fill="none" xmlns="http://www.w3.org/2000/svg">
<path fill-rule="evenodd" clip-rule="evenodd" d="M21.0419 8.03718C21.682 7.4439 22.7217 7.89785 22.7217 8.77059L22.7217 30.1106C22.7217 30.9833 21.682 31.4372 21.0419 30.844L13.9826 24.3007L6.24345 24.3007C5.69116 24.3007 5.24345 23.853 5.24345 23.3007L5.24345 15.5804C5.24345 15.0281 5.69116 14.5804 6.24345 14.5804L13.9826 14.5804L21.0419 8.03718Z" stroke="white" stroke-linecap="round" stroke-linejoin="round"/>
<path d="M24.4695 21.0606C25.3515 20.2431 25.3515 18.638 24.4695 17.8205" stroke="white" stroke-linecap="round"/>
<path d="M27.9652 25.9208C31.6109 22.5416 31.6109 16.3395 27.9652 12.9604" stroke="white" stroke-linecap="round"/>
<path d="M31.4609 30.7809C38.4269 24.3242 38.4656 14.5929 31.4609 8.10025" stroke="white" stroke-linecap="round"/>
</svg>
